<svg width="51" height="50" viewBox="0 0 51 50" fill="none" xmlns="http://www.w3.org/2000/svg">
<g clip-path="url(#clip0_1224_135)">
<path d="M42.2143 9.16777C41.061 10.0394 39.9091 10.9095 38.7558 11.7796C36.8278 13.2352 34.8939 14.6834 32.9746 16.1507C32.5007 16.5131 32.0018 16.6804 31.4032 16.6745C29.3709 16.6554 27.3387 16.6643 25.3065 16.6687C22.1855 16.6745 20.0579 18.7728 20.0345 21.8923C20.0183 23.9788 20.0154 26.0668 20.0345 28.1533C20.0638 31.2434 22.1914 33.3431 25.2757 33.3475C27.327 33.3505 29.3768 33.3593 31.4281 33.3417C32.0077 33.3373 32.4904 33.5045 32.9497 33.8508C35.9005 36.0767 38.8659 38.285 41.8122 40.5183C42.1336 40.7619 42.3552 40.7927 42.719 40.5961C44.6031 39.5748 46.9581 39.927 48.509 41.4236C50.0659 42.9276 50.4752 45.2958 49.5127 47.2386C48.5399 49.2033 46.4621 50.2656 44.2216 49.9457C42.1923 49.6552 40.4491 47.9766 40.1292 45.8989C40.0309 45.2636 40.116 44.5886 40.1953 43.9415C40.2334 43.6231 40.185 43.4485 39.9312 43.2592C37.1154 41.158 34.3114 39.0392 31.4897 36.9469C31.2638 36.7781 30.9278 36.6857 30.6416 36.6813C28.7195 36.6563 26.7958 36.6901 24.8736 36.6578C20.3793 36.5815 16.7726 32.9778 16.7051 28.4849C16.6699 26.1607 16.6655 23.835 16.7066 21.5108C16.7858 16.9783 20.4791 13.3701 25.013 13.3584C26.8985 13.3525 28.7855 13.3672 30.671 13.3467C30.941 13.3437 31.2564 13.2542 31.4692 13.0972C34.2908 11.0019 37.0934 8.88312 39.9121 6.78486C40.1894 6.57944 40.2569 6.39309 40.1821 6.06001C39.5599 3.29707 41.3354 0.654449 44.1614 0.107143C46.8348 -0.410817 49.5655 1.51723 49.969 4.20827C50.3945 7.04311 48.4768 9.62117 45.6962 9.97919C44.4373 10.1362 43.3001 9.83687 42.2143 9.16777ZM46.691 4.98301C46.6822 4.04687 45.9442 3.33375 44.9978 3.34696C44.0924 3.3587 43.372 4.09089 43.372 4.99915C43.372 5.93676 44.1056 6.67041 45.0403 6.66601C45.9794 6.66014 46.6998 5.92502 46.691 4.98301ZM46.6925 44.9642C46.6852 44.031 45.9501 43.3179 45.0095 43.3296C44.0763 43.3414 43.3617 44.078 43.3735 45.0156C43.3852 45.9591 44.1511 46.678 45.1196 46.6575C46.0058 46.6384 46.6999 45.8916 46.6925 44.9642Z" fill="url(#paint0_linear_1224_135)"/>
<path d="M26.6668 46.7279C26.6668 47.7844 26.6668 48.8232 26.6668 49.9501C25.0234 49.843 23.3741 50.1849 21.7689 49.664C19.6853 48.9876 18.3691 47.0713 18.3501 44.7383C18.3427 43.7948 18.2972 43.8769 17.5137 43.4426C16.6803 42.979 16.1887 43.1653 15.5328 43.8124C13.5593 45.7668 10.5983 45.7346 8.56018 43.8197C7.73262 43.0435 6.93147 42.2365 6.15086 41.4133C4.13918 39.2931 4.21988 36.1926 6.36949 34.2103C6.85077 33.7657 6.88305 33.4473 6.67616 32.8325C6.36509 31.9096 5.89995 31.6528 4.92712 31.6176C2.11429 31.5149 0.189186 29.5413 0.0453898 26.7549C-0.0162372 25.5503 -0.0206391 24.3353 0.0556609 23.1321C0.231738 20.356 2.31091 18.3516 5.08266 18.3516C5.93517 18.3516 6.34014 18.1316 6.59252 17.3113C6.88892 16.3502 6.96228 16.3722 6.27558 15.6679C4.1744 13.5095 4.20961 10.437 6.36215 8.31966C7.07967 7.61389 7.79718 6.90664 8.52496 6.21114C10.7729 4.06594 13.8865 4.17305 15.9598 6.49433C16.3105 6.8861 16.5585 6.84208 17.0207 6.71296C18.0771 6.4195 18.3794 5.86339 18.4073 4.7497C18.4718 2.11001 20.4821 0.180503 23.1203 0.0323051C24.2853 -0.0337238 25.4577 0.0205666 26.6682 0.0205666C26.6682 1.12252 26.6682 2.19218 26.6682 3.34109C26.4716 3.34109 26.2779 3.34109 26.0842 3.34109C25.1686 3.34255 24.253 3.32641 23.3374 3.34989C22.4292 3.3719 21.7542 4.05566 21.7322 4.96393C21.7131 5.71372 21.7322 6.46498 21.7249 7.21625C21.7146 8.13625 21.3023 8.65861 20.4527 8.98875C19.2803 9.44509 18.1182 9.93077 16.9649 10.437C16.1535 10.7935 15.4976 10.7216 14.8535 10.1024C14.3252 9.59475 13.8249 9.05919 13.2952 8.55443C12.5425 7.83545 11.5872 7.83398 10.8477 8.55443C10.0862 9.29542 9.33492 10.0467 8.5954 10.8067C7.87788 11.5433 7.87201 12.5074 8.57779 13.2601C9.07814 13.7942 9.6049 14.3033 10.1082 14.836C10.7069 15.4684 10.7758 16.1037 10.4295 16.9005C9.92037 18.0714 9.43323 19.2511 8.96662 20.4396C8.65115 21.2422 8.11118 21.6648 7.22053 21.6839C6.50742 21.6986 5.79284 21.678 5.07826 21.6898C4.07168 21.7059 3.38792 22.3765 3.37324 23.3801C3.3571 24.4601 3.3571 25.54 3.37324 26.6199C3.38792 27.6236 4.06875 28.2971 5.07239 28.3161C5.76789 28.3279 6.4634 28.3147 7.16037 28.3205C8.18602 28.3293 8.68637 28.7285 9.04586 29.6734C9.47431 30.7988 9.93798 31.911 10.431 33.0086C10.8301 33.8978 10.7567 34.5434 10.0627 35.2536C9.57556 35.751 9.07227 36.2323 8.58953 36.7326C7.86761 37.4809 7.86027 38.4244 8.57632 39.1801C9.30704 39.9504 10.0466 40.7134 10.7978 41.4632C11.5711 42.2365 12.5292 42.2306 13.3245 41.4603C13.8366 40.9629 14.3311 40.4464 14.8432 39.949C15.4859 39.3254 16.13 39.2535 16.9517 39.6129C18.105 40.1177 19.2686 40.5975 20.441 41.0553C21.2861 41.3855 21.697 41.9166 21.7131 42.8366C21.7234 43.3854 21.7513 43.9371 21.7087 44.4844C21.5899 46.028 22.4761 46.7661 23.873 46.6766C24.7475 46.6208 25.6294 46.6707 26.5083 46.6766C26.5406 46.6751 26.5743 46.6956 26.6668 46.7279Z" fill="url(#paint1_linear_1224_135)"/>
<path d="M25.0557 26.6552C25.0557 25.518 25.0557 24.463 25.0557 23.342C25.2904 23.342 25.5047 23.342 25.7174 23.342C30.404 23.342 35.0906 23.3361 39.7772 23.3508C40.1792 23.3523 40.3773 23.2452 40.5534 22.8651C41.5306 20.7581 43.9003 19.596 46.1057 20.1022C48.4152 20.6319 50.0058 22.6157 50.0102 24.9707C50.0131 27.2905 48.3947 29.3315 46.1585 29.8275C43.8533 30.3381 41.5394 29.2318 40.5475 27.0998C40.3744 26.7285 40.1763 26.6464 39.808 26.6478C35.1214 26.6581 30.4348 26.6552 25.7482 26.6552C25.5311 26.6552 25.3139 26.6552 25.0557 26.6552ZM46.6926 25.0221C46.7014 24.0815 45.9765 23.3464 45.0404 23.3435C44.1043 23.3405 43.3706 24.0742 43.3735 25.0103C43.3765 25.9245 44.0911 26.6493 44.9993 26.6625C45.9413 26.6743 46.6838 25.9538 46.6926 25.0221Z" fill="url(#paint2_linear_1224_135)"/>
</g>
<defs>
<linearGradient id="paint0_linear_1224_135" x1="33.3533" y1="0.0227661" x2="33.3533" y2="50.002" gradientUnits="userSpaceOnUse">
<stop stop-color="#20D4FE"/>
<stop offset="1" stop-color="#B722FF"/>
</linearGradient>
<linearGradient id="paint1_linear_1224_135" x1="13.3335" y1="-0.000427246" x2="13.3335" y2="49.9629" gradientUnits="userSpaceOnUse">
<stop stop-color="#20D4FE"/>
<stop offset="1" stop-color="#B722FF"/>
</linearGradient>
<linearGradient id="paint2_linear_1224_135" x1="37.5329" y1="19.9843" x2="37.5329" y2="29.9509" gradientUnits="userSpaceOnUse">
<stop stop-color="#20D4FE"/>
<stop offset="1" stop-color="#B722FF"/>
</linearGradient>
<clipPath id="clip0_1224_135">
<rect width="50.0293" height="50" fill="white"/>
</clipPath>
</defs>
</svg>
