<svg width="22" height="17" viewBox="0 0 22 17" fill="none" xmlns="http://www.w3.org/2000/svg">
<path d="M20.2171 3.95312V13.5973C20.2171 14.2368 19.9631 14.85 19.5109 15.3022C19.0588 15.7543 18.4455 16.0084 17.8061 16.0084H3.33976C2.70031 16.0084 2.08705 15.7543 1.63489 15.3022C1.18273 14.85 0.928711 14.2368 0.928711 13.5973V3.95312" stroke="white" stroke-width="1.62022" stroke-linecap="round" stroke-linejoin="round"/>
<path d="M20.2171 3.95304C20.2171 3.31359 19.9631 2.70033 19.5109 2.24817C19.0588 1.79601 18.4455 1.54199 17.8061 1.54199H3.33976C2.70031 1.54199 2.08705 1.79601 1.63489 2.24817C1.18273 2.70033 0.928711 3.31359 0.928711 3.95304L9.29505 9.17698C9.67824 9.41648 10.121 9.54346 10.5729 9.54346C11.0248 9.54346 11.4676 9.41648 11.8508 9.17698L20.2171 3.95304Z" stroke="white" stroke-width="1.62022" stroke-linecap="round" stroke-linejoin="round"/>
</svg>
