<svg width="24" height="30" viewBox="0 0 24 30" fill="none" xmlns="http://www.w3.org/2000/svg">
<path d="M19.513 16.9611C19.513 23.1861 13.1372 27.0211 11.8122 27.7516C11.7388 27.7921 11.6564 27.8133 11.5725 27.8133C11.4887 27.8133 11.4063 27.7921 11.3329 27.7516C10.0069 27.0211 3.63306 23.1861 3.63306 16.9611C3.63306 11.9986 6.61055 8.5249 11.573 8.5249C16.5355 8.5249 19.513 11.9986 19.513 16.9611Z" stroke="white" stroke-width="1.62022" stroke-linecap="round" stroke-linejoin="round"/>
<path d="M7.60315 16.4651C7.60315 17.518 8.02141 18.5278 8.76593 19.2723C9.51045 20.0168 10.5202 20.4351 11.5731 20.4351C12.626 20.4351 13.6358 20.0168 14.3803 19.2723C15.1249 18.5278 15.5431 17.518 15.5431 16.4651C15.5431 15.4122 15.1249 14.4024 14.3803 13.6579C13.6358 12.9134 12.626 12.4951 11.5731 12.4951C10.5202 12.4951 9.51045 12.9134 8.76593 13.6579C8.02141 14.4024 7.60315 15.4122 7.60315 16.4651V16.4651Z" stroke="white" stroke-width="1.62022" stroke-linecap="round" stroke-linejoin="round"/>
</svg>
