<svg width="40" height="51" viewBox="0 0 40 51" fill="none" xmlns="http://www.w3.org/2000/svg">
<g clip-path="url(#clip0_1224_125)">
<path d="M27.4399 41.4994C27.4399 40.8955 27.4399 40.3618 27.4399 39.8282C27.412 39.8001 27.384 39.772 27.3561 39.758C26.086 39.6456 26.0721 39.6316 25.8767 38.3536C25.8627 38.2974 25.8627 38.2553 25.8627 38.1991C25.9464 37.2301 25.2905 36.893 24.5228 36.6683C24.3972 36.6402 24.2297 36.6964 24.1181 36.7666C23.7133 37.0615 23.3225 37.3986 22.9177 37.7076C22.4432 38.0727 22.0943 38.0587 21.6616 37.6514C20.9637 36.9632 20.2659 36.2751 19.5959 35.5729C19.1912 35.1516 19.1632 34.8426 19.4982 34.3511C19.7494 33.986 19.9728 33.6208 20.2659 33.2838C20.5171 32.9889 20.4752 32.7501 20.3775 32.399C20.1542 31.6687 19.7494 31.43 18.9958 31.3738C17.3628 31.2334 17.3628 31.1772 17.3628 29.5341C17.3628 28.8178 17.3628 28.1016 17.3628 27.3854C17.3628 26.8658 17.628 26.5708 18.1304 26.4866C18.3816 26.4445 18.6468 26.3742 18.912 26.3742C19.6517 26.3461 20.1123 26.0653 20.3217 25.2929C20.4194 24.9277 20.4473 24.689 20.1821 24.4081C19.889 24.0851 19.6238 23.734 19.3726 23.3829C19.0237 22.9195 19.0376 22.5824 19.4284 22.1751C20.1263 21.4589 20.8381 20.7567 21.536 20.0545C21.8989 19.6894 22.2897 19.6613 22.7084 19.9703C22.9038 20.1107 23.1271 20.2231 23.3085 20.3916C23.8808 20.9533 24.467 21.1078 25.1928 20.6303C25.43 20.4758 25.5975 20.3916 25.6115 20.0686C25.6394 19.577 25.7231 19.0996 25.779 18.608C25.8348 18.1165 26.1 17.8356 26.5885 17.8216C27.6353 17.8075 28.6821 17.8075 29.7289 17.8216C30.2034 17.8216 30.4686 18.0884 30.5523 18.5378C30.6361 19.0153 30.7477 19.5068 30.7896 19.9843C30.8175 20.3214 31.0129 20.4197 31.2641 20.5741C31.9899 21.0236 32.4924 20.7988 33.0925 20.2792C34.251 19.2681 34.2929 19.2962 35.3815 20.3916C35.884 20.8972 36.4004 21.4027 36.9029 21.9083C37.3774 22.3998 37.4053 22.6667 37.0145 23.2425C36.861 23.4531 36.7354 23.6919 36.5539 23.8885C36.0654 24.3941 35.9956 24.8715 36.3446 25.5176C36.54 25.8827 36.7075 26.0934 37.1262 26.1074C37.5588 26.1214 37.9915 26.1917 38.4242 26.2619C38.9546 26.3321 39.1918 26.5989 39.1918 27.1326C39.2058 28.1437 39.1918 29.1689 39.1918 30.1801C39.1918 30.6576 38.9546 30.9385 38.494 31.0227C37.9776 31.121 37.4611 31.1912 36.9587 31.3176C36.7772 31.3598 36.5958 31.5283 36.4841 31.6968C36.0236 32.399 36.1492 32.9608 36.7214 33.6068C37.7403 34.7584 37.6984 34.8005 36.5958 35.91C36.0794 36.4296 35.5769 36.9632 35.0465 37.4688C34.6278 37.8761 34.3068 37.9042 33.8323 37.5812C33.4415 37.3143 33.0507 37.0475 32.6878 36.7526C32.4365 36.5419 32.2272 36.5981 31.9341 36.6824C31.1664 36.893 30.9152 37.3424 30.8594 38.1429C30.7617 39.6456 30.6919 39.6316 29.0589 39.772C29.0589 39.9686 29.0589 40.1652 29.0589 40.3618C29.0589 42.6369 29.0589 44.912 29.0589 47.2012C29.0589 49.392 27.7748 50.67 25.6115 50.67C18.2281 50.67 10.8447 50.67 3.46139 50.67C1.28406 50.67 0 49.3779 0 47.2152C0 45.6704 0 44.1256 0 42.5948C0 41.7522 0.237273 41.5134 1.08866 41.5134C9.64443 41.5134 18.1862 41.5134 26.742 41.5134C26.9653 41.4994 27.1886 41.4994 27.4399 41.4994ZM18.926 27.9893C18.926 28.5089 18.9399 28.9583 18.926 29.4077C18.912 29.7307 19.0516 29.829 19.3586 29.843C19.7355 29.8711 20.1263 29.9273 20.5031 29.9554C20.9777 29.9975 21.2568 30.2222 21.4104 30.6857C21.5918 31.2474 21.8291 31.7951 22.1082 32.3288C22.3315 32.7782 22.3176 33.1574 22.0245 33.5506C21.7174 33.9579 21.4243 34.3932 21.1312 34.8145C21.5778 35.2639 21.9826 35.6712 22.4153 36.1066C22.834 35.7695 23.2667 35.4465 23.6854 35.0954C24.0204 34.8145 24.3553 34.8005 24.7461 34.9831C25.3184 35.2499 25.8906 35.4886 26.4768 35.6993C26.8955 35.8397 27.1189 36.0785 27.1747 36.5138C27.2584 37.0616 27.3701 37.6093 27.4538 38.1289C28.0959 38.1289 28.6681 38.1289 29.2822 38.1289C29.338 37.5952 29.4078 37.0896 29.4497 36.5841C29.4916 36.0925 29.7428 35.8117 30.2174 35.6431C30.7756 35.4606 31.32 35.2218 31.8503 34.955C32.2551 34.7443 32.604 34.7584 32.9669 35.0252C33.3996 35.3482 33.8462 35.6572 34.2091 35.924C34.6697 35.5027 35.1163 35.0954 35.563 34.6882C35.214 34.2387 34.8791 33.8034 34.5441 33.3821C34.2789 33.0591 34.2789 32.7361 34.4464 32.3569C34.6976 31.7811 34.9488 31.2053 35.1442 30.6155C35.2978 30.152 35.5769 29.9273 36.0375 29.8711C36.5539 29.8009 37.0564 29.7026 37.5728 29.6183C37.5728 28.9864 37.5728 28.3965 37.5728 27.7927C37.0145 27.7224 36.4702 27.6522 35.9398 27.596C35.4932 27.5539 35.2699 27.3011 35.1303 26.9079C34.9349 26.3461 34.7255 25.7844 34.4464 25.2648C34.2091 24.8154 34.2231 24.4502 34.5301 24.057C34.8372 23.6357 35.1303 23.2144 35.3955 22.8212C34.9488 22.3718 34.5301 21.9504 34.0975 21.5151C33.7067 21.8381 33.274 22.1611 32.8553 22.5122C32.5203 22.7931 32.1853 22.7931 31.7945 22.6105C31.2502 22.3437 30.6919 22.1049 30.1057 21.9224C29.6591 21.7819 29.4218 21.5291 29.352 21.0938C29.2822 20.6444 29.2124 20.195 29.1147 19.7456C29.0868 19.6332 28.9333 19.4787 28.8356 19.4647C28.3192 19.4366 27.8028 19.4506 27.2584 19.4506C27.1886 20.0405 27.1189 20.5741 27.063 21.1078C27.0212 21.5432 26.7839 21.7819 26.3652 21.9224C25.7929 22.133 25.2346 22.3577 24.6903 22.6386C24.2855 22.8492 23.9366 22.8352 23.5737 22.5684C23.141 22.2454 22.6944 21.9504 22.3036 21.6555C21.843 22.0909 21.4104 22.4841 20.9777 22.9054C21.3266 23.3408 21.6616 23.7761 21.9966 24.1974C22.2757 24.5345 22.2757 24.8715 22.0943 25.2648C21.8291 25.8406 21.5918 26.4164 21.3824 27.0062C21.2429 27.3854 21.0475 27.6382 20.6288 27.7084C20.0705 27.7646 19.5261 27.8769 18.926 27.9893ZM1.57716 43.1004C1.57716 44.5609 1.57716 45.9513 1.57716 47.3556C1.57716 48.437 2.2192 49.083 3.30786 49.083C10.7889 49.083 18.27 49.083 25.765 49.083C26.8258 49.083 27.4678 48.4511 27.4678 47.3837C27.4817 46.0917 27.4678 44.7856 27.4678 43.4936C27.4678 43.3672 27.4399 43.2268 27.4259 43.0863C18.8004 43.1004 10.2167 43.1004 1.57716 43.1004Z" fill="url(#paint0_linear_1224_125)"/>
<path d="M27.4678 7.5696C18.8143 7.5696 10.2306 7.5696 1.57716 7.5696C1.57716 7.80835 1.57716 8.00496 1.57716 8.21562C1.57716 18.1727 1.57716 28.1157 1.57716 38.0727C1.57716 38.9153 1.32593 39.3086 0.781603 39.3086C0.25123 39.3086 0 38.9153 0 38.0587C0 26.5428 0 15.0269 0 3.51095C0 1.27799 1.28406 0 3.50326 0C10.9145 0 18.3398 0 25.751 0C27.3422 0 28.5564 0.912846 28.9333 2.3734C29.0031 2.65428 29.031 2.96324 29.031 3.25816C29.031 5.96861 29.0449 8.69311 29.017 11.4036C29.017 11.6423 28.9472 11.9794 28.7937 12.1057C28.5983 12.2602 28.2633 12.3445 27.9981 12.3024C27.6073 12.2462 27.4538 11.8951 27.4538 11.5019C27.4399 10.4205 27.4538 9.32508 27.4538 8.24371C27.4678 8.03305 27.4678 7.80835 27.4678 7.5696ZM27.4678 5.91244C27.4678 5.08385 27.4678 4.32549 27.4678 3.55308C27.4678 2.13466 26.9095 1.58695 25.5138 1.58695C18.1723 1.58695 10.8308 1.58695 3.47534 1.58695C3.33577 1.58695 3.1962 1.58695 3.05663 1.58695C2.28898 1.65717 1.63299 2.23296 1.60508 2.99133C1.56321 3.94631 1.59112 4.91533 1.59112 5.91244C10.2027 5.91244 18.8003 5.91244 27.4678 5.91244Z" fill="url(#paint1_linear_1224_125)"/>
<path d="M17.3489 10.1115C17.2652 10.3924 17.2233 10.5609 17.1675 10.7154C15.688 14.4651 14.1946 18.2148 12.7012 21.9645C12.6314 22.147 12.5197 22.3577 12.3801 22.4841C12.101 22.7369 11.766 22.7509 11.459 22.5262C11.124 22.2875 11.0123 21.9645 11.1659 21.5572C11.7241 20.1247 12.2964 18.6923 12.8547 17.2738C13.8038 14.8724 14.7529 12.4709 15.702 10.0694C15.9392 9.4655 16.4417 9.22676 16.8744 9.52168C17.1116 9.67616 17.2233 9.94299 17.3489 10.1115Z" fill="url(#paint2_linear_1224_125)"/>
<path d="M22.2617 16.0661C21.2568 15.0971 20.3635 14.2685 19.5121 13.3837C19.3167 13.1731 19.1632 12.7939 19.1911 12.513C19.2609 11.8951 20.0425 11.7266 20.545 12.2181C21.3964 13.0467 22.2198 13.9033 23.0573 14.76C23.3085 15.0128 23.5597 15.2515 23.783 15.5184C24.0901 15.8695 24.1041 16.2767 23.783 16.6138C22.6944 17.7513 21.5918 18.8748 20.4612 19.9703C20.1123 20.3073 19.6517 20.2652 19.3447 19.9281C19.0515 19.6051 19.0655 19.1557 19.4284 18.8046C20.3356 17.9058 21.2568 17.0351 22.2617 16.0661Z" fill="url(#paint3_linear_1224_125)"/>
<path d="M6.79721 16.0521C7.67651 16.8947 8.47207 17.6671 9.28159 18.4395C9.39324 18.5518 9.5049 18.6642 9.61656 18.7765C9.96549 19.1698 9.96549 19.6332 9.64447 19.9422C9.3095 20.2652 8.89079 20.2371 8.48603 19.872C8.38833 19.7737 8.29063 19.6754 8.19293 19.577C7.25779 18.6361 6.32266 17.6811 5.40148 16.7402C4.89903 16.2206 4.89903 15.8695 5.41544 15.3499C6.42036 14.3247 7.42528 13.2995 8.4302 12.2883C8.86287 11.853 9.3095 11.8108 9.67239 12.1619C10.0074 12.499 9.97945 12.9765 9.54677 13.4118C8.65351 14.2545 7.77421 15.1111 6.79721 16.0521Z" fill="url(#paint4_linear_1224_125)"/>
<path d="M24.0902 28.7617C24.0902 26.4304 25.9604 24.5767 28.2913 24.5767C30.5803 24.5907 32.4366 26.4585 32.4505 28.7477C32.4645 31.0508 30.5523 32.9748 28.2634 32.9748C25.9604 32.9889 24.0762 31.093 24.0902 28.7617ZM29.045 31.1913C30.1755 30.9525 30.985 29.7167 30.8594 28.5511C30.6919 27.1326 29.6033 26.1496 28.2075 26.1636C26.8816 26.1777 25.765 27.245 25.6673 28.5511C25.5836 29.8009 26.3791 30.9806 27.4678 31.1772C27.4678 30.9806 27.4678 30.784 27.4678 30.6014C27.4678 29.829 27.4538 29.0566 27.4818 28.2842C27.4957 27.7646 27.8586 27.4275 28.3052 27.4416C28.7379 27.4556 29.031 27.7927 29.0589 28.2983C29.0729 28.5089 29.0589 28.7196 29.0589 28.9302C29.045 29.6886 29.045 30.4329 29.045 31.1913Z" fill="url(#paint5_linear_1224_125)"/>
<path d="M14.5295 45.6002C15.6461 45.6002 16.7626 45.6002 17.8792 45.6002C18.5492 45.6002 18.8841 45.8811 18.8702 46.4007C18.8562 46.8923 18.5213 47.1731 17.8932 47.1731C15.6461 47.1731 13.399 47.1731 11.1379 47.1731C10.5238 47.1731 10.1748 46.8782 10.1609 46.3867C10.1609 45.8951 10.5098 45.6002 11.1239 45.5862C12.2545 45.5862 13.385 45.6002 14.5295 45.6002Z" fill="url(#paint6_linear_1224_125)"/>
<path d="M16.5254 4.53614C15.8834 4.53614 15.2414 4.55018 14.5854 4.53614C14.0829 4.52209 13.7619 4.22717 13.734 3.79181C13.7061 3.34241 14.055 2.97727 14.5575 2.96323C15.8694 2.94919 17.1675 2.94919 18.4794 2.96323C19.0098 2.97727 19.3169 3.32837 19.2889 3.79181C19.261 4.24122 18.9679 4.52209 18.4515 4.53614C17.8095 4.55018 17.1675 4.53614 16.5254 4.53614Z" fill="url(#paint7_linear_1224_125)"/>
</g>
<defs>
<linearGradient id="paint0_linear_1224_125" x1="19.599" y1="17.811" x2="19.599" y2="50.67" gradientUnits="userSpaceOnUse">
<stop stop-color="#20D4FE"/>
<stop offset="1" stop-color="#B722FF"/>
</linearGradient>
<linearGradient id="paint1_linear_1224_125" x1="14.5172" y1="0" x2="14.5172" y2="39.3086" gradientUnits="userSpaceOnUse">
<stop stop-color="#20D4FE"/>
<stop offset="1" stop-color="#B722FF"/>
</linearGradient>
<linearGradient id="paint2_linear_1224_125" x1="14.2235" y1="9.39563" x2="14.2235" y2="22.6848" gradientUnits="userSpaceOnUse">
<stop stop-color="#20D4FE"/>
<stop offset="1" stop-color="#B722FF"/>
</linearGradient>
<linearGradient id="paint3_linear_1224_125" x1="21.5789" y1="11.9316" x2="21.5789" y2="20.203" gradientUnits="userSpaceOnUse">
<stop stop-color="#20D4FE"/>
<stop offset="1" stop-color="#B722FF"/>
</linearGradient>
<linearGradient id="paint4_linear_1224_125" x1="7.46335" y1="11.9268" x2="7.46335" y2="20.1664" gradientUnits="userSpaceOnUse">
<stop stop-color="#20D4FE"/>
<stop offset="1" stop-color="#B722FF"/>
</linearGradient>
<linearGradient id="paint5_linear_1224_125" x1="28.2703" y1="24.5767" x2="28.2703" y2="32.9749" gradientUnits="userSpaceOnUse">
<stop stop-color="#20D4FE"/>
<stop offset="1" stop-color="#B722FF"/>
</linearGradient>
<linearGradient id="paint6_linear_1224_125" x1="14.5157" y1="45.5862" x2="14.5157" y2="47.1731" gradientUnits="userSpaceOnUse">
<stop stop-color="#20D4FE"/>
<stop offset="1" stop-color="#B722FF"/>
</linearGradient>
<linearGradient id="paint7_linear_1224_125" x1="16.5116" y1="2.9527" x2="16.5116" y2="4.54238" gradientUnits="userSpaceOnUse">
<stop stop-color="#20D4FE"/>
<stop offset="1" stop-color="#B722FF"/>
</linearGradient>
<clipPath id="clip0_1224_125">
<rect width="39.1779" height="50.67" fill="white"/>
</clipPath>
</defs>
</svg>
