<svg width="22" height="22" viewBox="0 0 22 22" fill="none" xmlns="http://www.w3.org/2000/svg">
<path d="M13.1788 19.5465L13.1893 19.5539C14.1002 20.1339 15.1816 20.3857 16.255 20.2678C17.3283 20.15 18.3294 19.6694 19.0926 18.9056L19.7557 18.2425C19.9027 18.0957 20.0192 17.9213 20.0987 17.7294C20.1783 17.5375 20.2192 17.3318 20.2192 17.1241C20.2192 16.9163 20.1783 16.7106 20.0987 16.5187C20.0192 16.3268 19.9027 16.1524 19.7557 16.0056L16.959 13.211C16.8122 13.0641 16.6378 12.9475 16.4459 12.868C16.254 12.7884 16.0483 12.7475 15.8406 12.7475C15.6328 12.7475 15.4271 12.7884 15.2352 12.868C15.0433 12.9475 14.8689 13.0641 14.7221 13.211C14.4256 13.5074 14.0234 13.674 13.6041 13.674C13.1849 13.674 12.7827 13.5074 12.4862 13.211L8.01443 8.73819C7.718 8.44166 7.55147 8.03954 7.55147 7.62025C7.55147 7.20096 7.718 6.79883 8.01443 6.50231C8.16137 6.35546 8.27794 6.1811 8.35747 5.98919C8.43699 5.79728 8.47793 5.59158 8.47793 5.38384C8.47793 5.1761 8.43699 4.9704 8.35747 4.77849C8.27794 4.58658 8.16137 4.41222 8.01443 4.26537L5.21879 1.47078C4.92226 1.17434 4.52014 1.00781 4.10085 1.00781C3.68156 1.00781 3.27943 1.17434 2.98291 1.47078L2.31878 2.13385C1.55514 2.89725 1.07479 3.89834 0.957099 4.9717C0.839414 6.04505 1.09144 7.12644 1.67153 8.03717L1.67785 8.04771C4.74144 12.5804 8.64554 16.4838 13.1788 19.5465V19.5465Z" stroke="white" stroke-width="1.62022" stroke-linecap="round" stroke-linejoin="round"/>
</svg>
